<mxfile host="app.diagrams.net" modified="2023-06-02T16:53:33.319Z" agent="Mozilla/5.0 (Windows NT 10.0; Win64; x64) AppleWebKit/537.36 (KHTML, like Gecko) Chrome/114.0.0.0 Safari/537.36" etag="bDJ1EeSCXPCAHfEkviVn" version="21.3.5" type="github">
  <diagram name="Page-1" id="M2o_wBl9OTKpIHn7ixOW">
    <mxGraphModel dx="1672" dy="808" grid="1" gridSize="10" guides="1" tooltips="1" connect="1" arrows="1" fold="1" page="1" pageScale="1" pageWidth="827" pageHeight="1169" math="0" shadow="0">
      <root>
        <mxCell id="0" />
        <mxCell id="1" parent="0" />
        <mxCell id="SkhgI5dMfUAVZijfdKXg-1" value="Welcome to bitcoin treasure jungle" style="rounded=1;whiteSpace=wrap;html=1;" vertex="1" parent="1">
          <mxGeometry x="240" y="30" width="370" height="60" as="geometry" />
        </mxCell>
      </root>
    </mxGraphModel>
  </diagram>
</mxfile>
